<svg xmlns="http://www.w3.org/2000/svg" viewBox="0 0 1207.24 1207.24"><defs><style>.cls-1{fill:#7f2f2f;}.cls-2{fill:#ec7777;}.cls-3{fill:#f4ce9f;}.cls-4{fill:#d18f5a;}.cls-5{fill:#ead3c1;}</style></defs><g id="Layer_2" data-name="Layer 2"><g id="colored"><circle class="cls-1" cx="603.62" cy="603.62" r="603.62"/><path id="J_paint" data-name="J paint" class="cls-2" d="M1027.57,307.53c-89.24,17.09-117.72,79.75-231.65,74.05s-248.75-38-305.71-70.25c-52.16-29.56-117.41-55.81-184.56-33.88-.67.08-30.27,9.55-30.27,9.55-12.36,2.79-26.37,6.78-35.81,9.14-22.79,5.69-66.46,30.38-74.06,79.75s43.68,47.47,58.87,41.77,43.67-19,60.76-60.76,3.8-51.27,15.19-66.46c.15-.19.24-.36.37-.55,3.06-4.34,27.28-33,113.56-1.35C507.3,322.72,670,541.88,851,448c51.27-26.58,49.87,372.45-28.48,305.71-102.53-87.34-112.18-114-174.69-45.57-39.87,43.67,64.56,132.92,138.61,180.39s138.62,9.49,169-68.36S1015.38,621,978.2,467c-13.29-55.06,56.44-25.33,91.15-41.77C1141.5,391.08,1116.82,290.44,1027.57,307.53Zm38,70.26c-18.74,14.57-73.5-3-118.71,6.08,32.63-23.27,64.84-44.4,86.43-47.86C1080.74,328.42,1082.64,364.5,1065.55,377.79Z"/><path id="R_human_w_eyes" data-name="R human w eyes" class="cls-3" d="M589,643.62c-77.78,15.56-68.36,104.43-68.36,104.43L437,683.5c32.28-20.89,41.78-26.59,89.25-77.86S587.05,486,558.57,442.35,442.74,355,368.69,372.09,288.94,461.33,287,486s15.19,110.13,13.29,161.4-26.58,188-26.58,188c-7.6,39.88,3.79,58.86,26.58,60.76,55.17,4.6,83.55-96.84,83.55-96.84s84.65,79.73,112,89.25c43.67,15.19,87.34-7.6,106.33-83.55S636.42,634.13,589,643.62ZM529.1,519.83a22.39,22.39,0,1,1-22.39,22.39A22.39,22.39,0,0,1,529.1,519.83Zm-166.39.34a22.39,22.39,0,1,1,22.39-22.39A22.39,22.39,0,0,1,362.71,520.17Zm49.65,83.58c-24.67-12.72-19.52-63.17-19-68.36,1.09-10.66,2.34-22.89,10.63-27.39,10.07-5.47,18.16,7.19,46.33,14.1,24.3,5.95,42.95,2.59,47,12.77a11.77,11.77,0,0,1,.49,6.21C494.52,563.3,443.16,619.63,412.36,603.75Z"/><path id="I_brush_handle" data-name="I brush handle" class="cls-4" d="M232,427.16s24.07-6.69,36.08,13.29c7.2,12,6.3,33.36,3.8,72.15-3.8,58.87-19,262-19,262a354.39,354.39,0,0,0-3.8,53.17c0,17.08-26.58,81.64-75.95,83.54s-47.47-32.28-43.67-83.54S156,582.86,156,582.86s3.8-24.69-1.9-39.88c-6.86-18.3,9.49-70.25,19-81.65S201.59,427.16,232,427.16Z"/><path id="brush_tip" data-name="brush tip" class="cls-5" d="M292.71,333c-7.39,6.28-16.74,13.61-19,12.5-3.8-1.9,7.59-26.59,0-26.59-6,0-20.89,17.09-24.69,13.3s7.6-15.2,5.7-22.79c-1.31-5.21-26.59,13.29-24.69,5.7,1.2-4.8,6.18-13.37,9.69-19l-.19.05c-22.79,5.69-66.46,30.38-74.06,79.75s43.68,47.47,58.87,41.77,43.67-19,60.76-60.76A138,138,0,0,0,292.71,333Z"/></g></g></svg>