<svg xmlns="http://www.w3.org/2000/svg" viewBox="0 0 983.8 642.1"><defs><style>.cls-1{fill:#fff;}</style></defs><g id="Layer_2" data-name="Layer 2"><g id="white"><path id="J_paint" data-name="J paint" class="cls-1" d="M899.86,38.2C810.62,55.29,782.14,118,668.21,112.26S419.46,74.28,362.5,42C310.34,12.45,245.09-13.81,177.94,8.12c-.67.08-30.27,9.56-30.27,9.56-12.36,2.78-26.37,6.77-35.82,9.13-22.78,5.7-66.45,30.38-74,79.75S81.47,154,96.66,148.34s43.68-19,60.77-60.77,3.79-51.26,15.19-66.45c.14-.2.24-.37.36-.55,3.07-4.35,27.29-33,113.57-1.35,93,34.18,255.76,253.33,436.72,159.5,51.27-26.59,49.87,372.45-28.48,305.71-102.54-87.35-112.18-114-174.69-45.58-39.88,43.68,64.56,132.92,138.61,180.39s138.62,9.49,169-68.36S887.66,351.7,850.49,197.7c-13.29-55.06,56.44-25.33,91.15-41.77C1013.79,121.75,989.11,21.12,899.86,38.2Zm38,70.26c-18.74,14.57-73.51-3-118.71,6.08,32.63-23.27,64.84-44.4,86.43-47.85C953,59.09,954.93,95.17,937.84,108.46Z"/><path id="R_human_w_eyes" data-name="R human w eyes" class="cls-1" d="M461.24,374.29c-77.78,15.56-68.36,104.44-68.36,104.44l-83.55-64.56c32.28-20.89,41.77-26.58,89.25-77.85S459.34,216.69,430.86,173,315,85.67,241,102.76,161.22,192,159.33,216.69s15.19,110.13,13.29,161.4-26.59,188-26.59,188c-7.59,39.88,3.8,58.87,26.59,60.77,55.16,4.59,83.54-96.84,83.54-96.84s84.66,79.72,112,89.24c43.68,15.19,87.35-7.59,106.34-83.55S508.71,364.8,461.24,374.29ZM401.39,250.5A22.4,22.4,0,1,1,379,272.89,22.4,22.4,0,0,1,401.39,250.5ZM235,250.85a22.4,22.4,0,1,1,22.39-22.39A22.39,22.39,0,0,1,235,250.85Zm49.65,83.57c-24.67-12.72-19.52-63.17-19-68.36,1.09-10.66,2.34-22.89,10.63-27.39,10.07-5.47,18.16,7.19,46.33,14.1,24.3,6,42.95,2.59,47,12.78a11.91,11.91,0,0,1,.48,6.21C366.81,294,315.45,350.3,284.65,334.42Z"/><path id="I_brush_handle" data-name="I brush handle" class="cls-1" d="M104.26,157.83s24.07-6.69,36.08,13.29c7.2,12,6.3,33.37,3.79,72.16-3.79,58.86-19,262-19,262a354.39,354.39,0,0,0-3.8,53.17c0,17.09-26.58,81.65-75.95,83.55S-2.07,609.75,1.72,558.48s26.59-245,26.59-245,3.79-24.68-1.9-39.87c-6.87-18.31,9.49-70.26,19-81.65S73.88,157.83,104.26,157.83Z"/><path id="brush_tip" data-name="brush tip" class="cls-1" d="M165,63.69c-7.39,6.28-16.75,13.6-19,12.49-3.79-1.9,7.6-26.58,0-26.58-6,0-20.88,17.09-24.68,13.29s7.59-15.19,5.7-22.79c-1.31-5.21-26.59,13.3-24.69,5.7,1.2-4.79,6.18-13.36,9.69-19l-.2,0c-22.78,5.7-66.45,30.38-74,79.75S81.47,154,96.66,148.34s43.68-19,60.77-60.77A137.91,137.91,0,0,0,165,63.69Z"/></g></g></svg>