<svg xmlns="http://www.w3.org/2000/svg" viewBox="0 0 4100.41 4100.41"><defs><style>.cls-1{fill:none;stroke:#cc6262;stroke-miterlimit:10;stroke-width:5px;}</style></defs><g id="Layer_2" data-name="Layer 2"><g id="Layer_8" data-name="Layer 8"><ellipse class="cls-1" cx="2903.9" cy="1481.9" rx="1025.55" ry="615.1" transform="translate(-334.55 1857.51) rotate(-33.65)"/><ellipse class="cls-1" cx="2505.37" cy="1131.19" rx="1025.55" ry="615.1" transform="translate(379.74 2874.24) rotate(-63.65)"/><ellipse class="cls-1" cx="1984.89" cy="1026.73" rx="615.1" ry="1025.55" transform="translate(-61.36 128.5) rotate(-3.65)"/><ellipse class="cls-1" cx="1481.9" cy="1196.51" rx="615.1" ry="1025.55" transform="translate(-414.7 1021.7) rotate(-33.65)"/><ellipse class="cls-1" cx="1131.19" cy="1595.04" rx="615.1" ry="1025.55" transform="translate(-800.19 1900.79) rotate(-63.65)"/><ellipse class="cls-1" cx="1026.73" cy="2115.52" rx="1025.55" ry="615.1" transform="translate(-132.66 69.69) rotate(-3.65)"/><ellipse class="cls-1" cx="1196.51" cy="2618.51" rx="1025.55" ry="615.1" transform="translate(-1250.52 1101.85) rotate(-33.65)"/><ellipse class="cls-1" cx="1595.04" cy="2969.22" rx="1025.55" ry="615.1" transform="translate(-1773.63 3080.73) rotate(-63.65)"/><ellipse class="cls-1" cx="2115.52" cy="3073.68" rx="615.1" ry="1025.55" transform="matrix(1, -0.06, 0.06, 1, -191.47, 140.98)"/><ellipse class="cls-1" cx="2618.51" cy="2903.9" rx="615.1" ry="1025.55" transform="translate(-1170.37 1937.66) rotate(-33.65)"/><ellipse class="cls-1" cx="2969.22" cy="2505.37" rx="615.1" ry="1025.55" transform="translate(-593.7 4054.17) rotate(-63.65)"/><ellipse class="cls-1" cx="3073.68" cy="1984.89" rx="1025.55" ry="615.1" transform="matrix(1, -0.06, 0.06, 1, -120.18, 199.8)"/><ellipse class="cls-1" cx="2903.9" cy="1481.9" rx="1025.55" ry="615.1" transform="translate(-334.55 1857.51) rotate(-33.65)"/></g></g></svg>