<svg xmlns="http://www.w3.org/2000/svg" viewBox="0 0 6333.7 108.45"><defs><style>.cls-1{fill:#f38686;}</style></defs><g id="Layer_2" data-name="Layer 2"><g id="Layer_1-2" data-name="Layer 1"><path id="pink" class="cls-1" d="M6296.06,19.83C6291,15.72,6280.82,0,6249.82,0c-14.36,0-33.26,4.38-46.11,19.5S6167.05,35,6167.05,35c-22.3,0-32.57-11.06-37.66-15.17S6114.14,0,6083.14,0c-14.36,0-33.26,4.38-46.11,19.5S6000.37,35,6000.37,35h0c-22.28,0-32.56-11.06-37.64-15.17S5947.47,0,5916.47,0c-14.36,0-33.26,4.38-46.11,19.5S5833.7,35,5833.7,35c-22.3,0-32.57-11.06-37.66-15.17S5780.79,0,5749.79,0c-14.36,0-33.26,4.38-46.11,19.5S5667,35,5667,35c-22.3,0-32.58-11.06-37.66-15.17S5614.11,0,5583.11,0c-14.36,0-33.25,4.38-46.1,19.5S5500.35,35,5500.35,35c-22.31,0-32.59-11.06-37.67-15.17S5447.44,0,5416.44,0c-14.37,0-33.26,4.38-46.11,19.5S5333.66,35,5333.66,35c-22.31,0-32.58-11.06-37.66-15.17S5280.76,0,5249.76,0c-14.36,0-33.26,4.38-46.11,19.5S5167,35,5167,35c-22.3,0-32.58-11.06-37.66-15.17S5114.08,0,5083.08,0c-14.36,0-33.22,4.38-46.07,19.5S5000.35,35,5000.35,35c-22.34,0-32.62-11.06-37.7-15.17S4947.41,0,4916.41,0c-14.37,0-33.27,4.38-46.12,19.5S4833.63,35,4833.63,35c-22.28,0-32.58-11.06-37.66-15.17S4780.73,0,4749.73,0c-14.38,0-33.26,4.38-46.11,19.5S4667,35,4667,35c-22.3,0-32.59-11.06-37.67-15.17S4614.05,0,4583.05,0c-14.36,0-33.26,4.38-46.11,19.5S4500.28,35,4500.28,35c-22.3,0-32.6-11.06-37.68-15.17S4447.35,0,4416.35,0c-14.34,0-33.24,4.38-46.09,19.5S4333.6,35,4333.6,35h-3.09c-20.17-1-29.73-11.13-34.57-15C4290.86,15.85,4280.7.13,4249.7.13c-14.35,0-33.26,4.35-46.11,19.46-10.87,12.78-29.59,15-35.1,15.41h-4.66c-20.16-1-29.73-11.13-34.57-15C4124.18,15.85,4114,.13,4083,.13c-14.36,0-33.26,4.35-46.11,19.46-10.87,12.79-29.59,15-35.09,15.41h-4.65c-20.17-1-29.73-11.12-34.57-15-5.08-4.11-15.25-19.83-46.25-19.83-14.37,0-33.27,4.35-46.12,19.46-10.87,12.78-29.58,15-35.09,15.41h-4.66c-20.17-1-29.73-11.13-34.57-15-5.08-4.11-15.25-19.83-46.25-19.83-14.31,0-33.26,4.35-46.11,19.46-10.87,12.78-29.58,15-35.09,15.41h-4.66c-20.17-1-29.73-11.13-34.57-15C3624.15,15.85,3614,.13,3583,.13c-14.36,0-33.26,4.35-46.11,19.46-10.88,12.8-29.61,15-35.09,15.41h-4.61c-20.17-1-29.75-11.12-34.59-15-5.08-4.11-15.24-19.83-46.24-19.83-14.4,0-33.3,4.35-46.15,19.46-10.87,12.78-29.58,15-35.09,15.41h-4.66c-20.17-1-29.73-11.13-34.57-15C3290.8,15.85,3280.63.13,3249.63.13c-14.36,0-33.26,4.35-46.11,19.46-10.87,12.78-29.58,15-35.09,15.41h-4.66c-20.17-1-29.73-11.13-34.57-15C3124.12,15.85,3114,.13,3083,.13c-14.37,0-33.26,4.35-46.11,19.46-10.87,12.78-29.59,15-35.1,15.41h-1.57c-22.29,0-32.58-11.06-37.66-15.17S2947.28,0,2916.28,0c-14.36,0-33.26,4.38-46.11,19.5S2833.51,35,2833.51,35c-22.3,0-32.58-11.06-37.66-15.17S2780.6,0,2749.6,0c-14.36,0-33.26,4.38-46.11,19.5S2666.83,35,2666.83,35c-22.3,0-32.58-11.06-37.66-15.17S2613.92,0,2582.92,0c-14.36,0-33.26,4.38-46.11,19.5S2500.15,35,2500.15,35c-22.3,0-32.58-11.06-37.66-15.17S2447.25,0,2416.25,0c-14.36,0-33.26,4.38-46.11,19.5S2333.48,35,2333.48,35c-22.3,0-32.59-11.06-37.67-15.17S2280.57,0,2249.57,0c-14.36,0-33.26,4.38-46.11,19.5S2166.8,35,2166.8,35c-22.3,0-32.58-11.06-37.66-15.17S2113.89,0,2082.89,0c-14.36,0-33.26,4.38-46.11,19.5S2000.12,35,2000.12,35c-22.3,0-32.58-11.06-37.66-15.17S1947.22,0,1916.22,0c-14.37,0-33.26,4.38-46.11,19.5S1833.44,35,1833.44,35c-22.29,0-32.58-11.06-37.66-15.17S1780.54,0,1749.54,0c-14.36,0-33.26,4.38-46.11,19.5S1666.77,35,1666.77,35h-3.09c-20.17-1-29.73-11.13-34.57-15C1624,15.85,1613.86.13,1582.86.13c-14.36,0-33.26,4.35-46.11,19.46-10.87,12.78-29.58,15-35.09,15.41H1497c-20.17-1-29.73-11.13-34.57-15-5.08-4.11-15.25-19.83-46.25-19.83-14.36,0-33.26,4.35-46.11,19.46-10.87,12.78-29.58,15-35.09,15.41h-4.66c-20.17-1-29.73-11.13-34.57-15-5.08-4.11-15.24-19.83-46.24-19.83-14.36,0-33.26,4.35-46.11,19.46-10.87,12.78-29.58,15-35.09,15.41h-4.66c-20.17-1-29.74-11.13-34.58-15C1124,15.85,1113.83.13,1082.83.13c-14.36,0-33.26,4.35-46.11,19.46-10.87,12.78-29.58,15-35.09,15.41h-5.52c-19.59-1.2-29-11.1-33.71-15-5-4.15-15.25-19.87-46.25-19.87C901.79.13,882.86,4.48,870,19.59c-10.87,12.78-29.58,15-35.09,15.41h-4.65c-20.15-1-29.71-11.13-34.55-15C790.64,15.85,780.48.13,749.48.13c-14.37,0-33.3,4.35-46.13,19.46-10.85,12.78-29.57,15-35.08,15.41h-4.66C643.45,34,633.88,23.87,629,20,624,15.85,613.8.13,582.8.13c-14.36,0-33.26,4.35-46.11,19.46-10.87,12.78-29.58,15-35.09,15.41h-4.66c-20.17-1-29.73-11.13-34.57-15C457.29,15.85,447.12.13,416.12.13,401.76.13,382.86,4.48,370,19.59c-10.87,12.78-29.58,15-35.09,15.41h-4.66c-20.16-1-29.73-11.13-34.57-15C290.61,15.85,280.45.13,249.45.13c-14.36,0-33.26,4.35-46.11,19.46-10.87,12.78-29.58,15-35.09,15.41h-4.66C143.42,34,133.86,23.87,129,20,123.94,15.85,113.77.13,82.77.13,68.41.13,49.51,4.48,36.66,19.59,25.79,32.37,7.08,34.61,1.57,35H0v73.45H6333.7V35h0C6311.42,35,6301.14,23.94,6296.06,19.83Z"/></g></g></svg>