<svg xmlns="http://www.w3.org/2000/svg" viewBox="0 0 109.62 121.04"><defs><style>.cls-1{fill:#7f2f30;}</style></defs><g id="Layer_2" data-name="Layer 2"><g id="Layer_1-2" data-name="Layer 1"><path id="red_flower" data-name="red flower" class="cls-1" d="M99.16,67.6c-12.13-7.33-23-6.6-23-6.6l0-.06a52.7,52.7,0,0,0,23.37-7.89c11.39-7.45,11.9-17.27,7.48-24S93.63,17.94,81.78,25.7a54.17,54.17,0,0,0-16.25,16h0A49,49,0,0,0,70.8,19.42C70.8,5.81,62.86,0,54.78,0S38.2,5.1,38.2,19.28a45,45,0,0,0,5.16,21.28A55.75,55.75,0,0,0,27.85,25.7C16,17.94,7.06,22.26,2.64,29s-3.92,16.58,7.47,24a52.7,52.7,0,0,0,23.37,7.89l0,.06s-10.87-.73-23,6.6S-1.65,84.84,2.52,91.76s13.26,10.71,24.9,3.67A58.12,58.12,0,0,0,41.79,83a50.18,50.18,0,0,0-3.59,18.58c0,13.61,7.94,19.42,16,19.42s16.59-5.1,16.59-19.28A44.28,44.28,0,0,0,65,79.37h0A57.62,57.62,0,0,0,82.2,95.43c11.65,7,20.72,3.24,24.9-3.67S111.3,74.92,99.16,67.6Z"/></g></g></svg>