<svg xmlns="http://www.w3.org/2000/svg" viewBox="0 0 109.62 121"><defs><style>.cls-1{fill:#be5151;}</style></defs><g id="Layer_2" data-name="Layer 2"><g id="Layer_1-2" data-name="Layer 1"><path id="peach_flower" data-name="peach flower" class="cls-1" d="M99.15,67.6c-12.13-7.33-23-6.6-23-6.6v-.06a52.62,52.62,0,0,0,23.37-7.89c11.39-7.45,11.9-17.27,7.48-24S93.62,17.94,81.77,25.7a54.13,54.13,0,0,0-16.25,16h0a49,49,0,0,0,5.27-22.28C70.79,5.81,62.85,0,54.77,0S38.19,5.1,38.19,19.28a45,45,0,0,0,5.16,21.28A55.58,55.58,0,0,0,27.84,25.7C16,17.94,7.05,22.26,2.63,29S-1.29,45.58,10.1,53a52.7,52.7,0,0,0,23.37,7.89V61s-10.87-.73-23,6.6-12.13,17.29-8,24.21,13.26,10.71,24.9,3.67A58.14,58.14,0,0,0,41.78,83a50.34,50.34,0,0,0-3.59,18.58c0,13.61,7.94,19.42,16,19.42s16.59-5.1,16.59-19.28A44.22,44.22,0,0,0,65,79.37h0a57.69,57.69,0,0,0,17.2,16.06c11.65,7,20.72,3.24,24.9-3.67S111.29,74.92,99.15,67.6Z"/></g></g></svg>