<svg id="Layer_1" data-name="Layer 1" xmlns="http://www.w3.org/2000/svg" viewBox="0 0 4106.39 4121.4"><defs><style>.cls-1,.cls-2,.cls-3,.cls-4,.cls-5{fill:none;stroke:#fff;stroke-width:10px;}.cls-1{stroke-miterlimit:10;}.cls-2{stroke-miterlimit:10;}.cls-3{stroke-miterlimit:10;}.cls-4{stroke-miterlimit:9.96;}.cls-5{stroke-miterlimit:10.02;}</style></defs><g id="Layer_2" data-name="Layer 2"><g id="Layer_8" data-name="Layer 8"><ellipse class="cls-1" cx="2906.48" cy="1484.44" rx="1025.55" ry="615.1" transform="translate(-335.54 1859.27) rotate(-33.65)"/><ellipse class="cls-2" cx="2507.98" cy="1133.71" rx="1025.55" ry="615.1" transform="translate(378.89 2877.91) rotate(-63.65)"/><ellipse class="cls-3" cx="1987.44" cy="1029.23" rx="615.1" ry="1025.55" transform="translate(-61.49 128.61) rotate(-3.65)"/><ellipse class="cls-4" cx="1475.93" cy="1202.2" rx="612.45" ry="1021.13" transform="translate(-418.47 1015.33) rotate(-33.53)"/><ellipse class="cls-2" cx="1133.78" cy="1597.54" rx="615.1" ry="1025.55" transform="translate(-801.01 1904.44) rotate(-63.65)"/><ellipse class="cls-3" cx="1029.23" cy="2118" rx="1025.55" ry="615.1" transform="translate(-132.75 69.82) rotate(-3.65)"/><ellipse class="cls-1" cx="1199.03" cy="2621.04" rx="1025.55" ry="615.1" transform="translate(-1251.45 1103.59) rotate(-33.65)"/><ellipse class="cls-2" cx="1597.62" cy="2971.76" rx="1025.55" ry="615.1" transform="translate(-1774.48 3084.36) rotate(-63.65)"/><ellipse class="cls-5" cx="2111.04" cy="3090.18" rx="616.21" ry="1027.39" transform="translate(-181.29 131.98) rotate(-3.43)"/><ellipse class="cls-1" cx="2621.05" cy="2906.46" rx="615.1" ry="1025.55" transform="translate(-1171.33 1939.38) rotate(-33.65)"/><ellipse class="cls-2" cx="2971.83" cy="2507.92" rx="615.1" ry="1025.55" transform="translate(-594.57 4057.82) rotate(-63.65)"/><ellipse class="cls-5" cx="3075.16" cy="2002.72" rx="1027.39" ry="616.21" transform="translate(-114.43 187.77) rotate(-3.43)"/><ellipse class="cls-1" cx="2906.48" cy="1484.44" rx="1025.55" ry="615.1" transform="translate(-335.54 1859.27) rotate(-33.65)"/></g></g></svg>